<svg width="376" height="51" viewBox="0 0 376 51" fill="none" xmlns="http://www.w3.org/2000/svg">
<path d="M25.536 9.8L29.952 16.776L9.184 28.904L29.952 40.808L25.376 48.008L0.448 32.52V25.352L25.536 9.8ZM58.183 0.455997L68.295 1.512V49H59.335L58.823 45.256C57.8843 46.5787 56.6363 47.72 55.079 48.68C53.5217 49.6187 51.6337 50.088 49.415 50.088C46.599 50.088 44.263 49.3307 42.407 47.816C40.5723 46.3013 39.1963 44.1893 38.279 41.48C37.383 38.7493 36.935 35.56 36.935 31.912C36.935 28.4133 37.479 25.3093 38.567 22.6C39.655 19.8907 41.2123 17.768 43.239 16.232C45.2657 14.6747 47.6763 13.896 50.471 13.896C51.9857 13.896 53.3937 14.1627 54.695 14.696C55.9963 15.2293 57.159 16.008 58.183 17.032V0.455997ZM53.191 21.288C51.4417 21.288 50.0337 22.12 48.967 23.784C47.9003 25.4267 47.367 28.1573 47.367 31.976C47.367 34.7707 47.591 36.9467 48.039 38.504C48.487 40.04 49.1057 41.1173 49.895 41.736C50.6843 42.3547 51.591 42.664 52.615 42.664C53.7457 42.664 54.7697 42.312 55.687 41.608C56.6257 40.904 57.4577 39.944 58.183 38.728V24.072C57.479 23.1973 56.7323 22.5147 55.943 22.024C55.1537 21.5333 54.2363 21.288 53.191 21.288ZM105.838 39.208C105.838 40.488 106.009 41.416 106.35 41.992C106.713 42.568 107.289 43.0053 108.078 43.304L105.998 49.96C103.993 49.768 102.297 49.3307 100.91 48.648C99.5447 47.944 98.4673 46.888 97.678 45.48C96.3767 47.0373 94.7127 48.2 92.686 48.968C90.6593 49.7147 88.59 50.088 86.478 50.088C82.9793 50.088 80.1847 49.096 78.094 47.112C76.0247 45.1067 74.99 42.536 74.99 39.4C74.99 35.7093 76.43 32.8613 79.31 30.856C82.2113 28.8507 86.286 27.848 91.534 27.848H96.11V26.568C96.11 24.7973 95.534 23.4853 94.382 22.632C93.2513 21.7787 91.5873 21.352 89.39 21.352C88.302 21.352 86.9047 21.512 85.198 21.832C83.4913 22.1307 81.7847 22.568 80.078 23.144L77.742 16.424C79.9393 15.592 82.222 14.9627 84.59 14.536C86.9793 14.1093 89.1127 13.896 90.99 13.896C96.046 13.896 99.7793 14.9307 102.19 17C104.622 19.048 105.838 22.0133 105.838 25.896V39.208ZM89.966 42.856C91.054 42.856 92.1953 42.536 93.39 41.896C94.5847 41.2347 95.4913 40.3067 96.11 39.112V33.608H93.614C90.798 33.608 88.7287 34.0453 87.406 34.92C86.0833 35.7733 85.422 37.032 85.422 38.696C85.422 39.9973 85.8167 41.0213 86.606 41.768C87.4167 42.4933 88.5367 42.856 89.966 42.856ZM146.197 47.016C144.874 47.8693 143.274 48.5947 141.397 49.192C139.52 49.7893 137.408 50.088 135.061 50.088C130.624 50.088 127.328 48.9573 125.173 46.696C123.018 44.4133 121.941 41.32 121.941 37.416V21.992H114.805V15.016H121.941V7.656L132.053 6.44V15.016H142.997L142.005 21.992H132.053V37.416C132.053 39.1013 132.437 40.3067 133.205 41.032C133.973 41.7573 135.2 42.12 136.885 42.12C138.08 42.12 139.168 41.9813 140.149 41.704C141.152 41.4053 142.048 41.032 142.837 40.584L146.197 47.016ZM182.588 39.208C182.588 40.488 182.759 41.416 183.1 41.992C183.463 42.568 184.039 43.0053 184.828 43.304L182.748 49.96C180.743 49.768 179.047 49.3307 177.66 48.648C176.295 47.944 175.217 46.888 174.428 45.48C173.127 47.0373 171.463 48.2 169.436 48.968C167.409 49.7147 165.34 50.088 163.228 50.088C159.729 50.088 156.935 49.096 154.844 47.112C152.775 45.1067 151.74 42.536 151.74 39.4C151.74 35.7093 153.18 32.8613 156.06 30.856C158.961 28.8507 163.036 27.848 168.284 27.848H172.86V26.568C172.86 24.7973 172.284 23.4853 171.132 22.632C170.001 21.7787 168.337 21.352 166.14 21.352C165.052 21.352 163.655 21.512 161.948 21.832C160.241 22.1307 158.535 22.568 156.828 23.144L154.492 16.424C156.689 15.592 158.972 14.9627 161.34 14.536C163.729 14.1093 165.863 13.896 167.74 13.896C172.796 13.896 176.529 14.9307 178.94 17C181.372 19.048 182.588 22.0133 182.588 25.896V39.208ZM166.716 42.856C167.804 42.856 168.945 42.536 170.14 41.896C171.335 41.2347 172.241 40.3067 172.86 39.112V33.608H170.364C167.548 33.608 165.479 34.0453 164.156 34.92C162.833 35.7733 162.172 37.032 162.172 38.696C162.172 39.9973 162.567 41.0213 163.356 41.768C164.167 42.4933 165.287 42.856 166.716 42.856ZM199.939 42.952C199.939 41.6507 200.259 40.4667 200.899 39.4C201.539 38.312 202.403 37.448 203.491 36.808C204.579 36.1467 205.774 35.816 207.075 35.816C208.398 35.816 209.592 36.1467 210.659 36.808C211.747 37.448 212.611 38.312 213.251 39.4C213.891 40.4667 214.211 41.6507 214.211 42.952C214.211 44.232 213.891 45.416 213.251 46.504C212.611 47.592 211.747 48.456 210.659 49.096C209.592 49.7573 208.398 50.088 207.075 50.088C205.774 50.088 204.579 49.7573 203.491 49.096C202.403 48.456 201.539 47.592 200.899 46.504C200.259 45.416 199.939 44.232 199.939 42.952ZM261.322 47.016C259.999 47.8693 258.399 48.5947 256.522 49.192C254.645 49.7893 252.533 50.088 250.186 50.088C245.749 50.088 242.453 48.9573 240.298 46.696C238.143 44.4133 237.066 41.32 237.066 37.416V21.992H229.93V15.016H237.066V7.656L247.178 6.44V15.016H258.122L257.13 21.992H247.178V37.416C247.178 39.1013 247.562 40.3067 248.33 41.032C249.098 41.7573 250.325 42.12 252.01 42.12C253.205 42.12 254.293 41.9813 255.274 41.704C256.277 41.4053 257.173 41.032 257.962 40.584L261.322 47.016ZM290.737 0.455997C293.212 0.455997 295.398 0.658665 297.297 1.064C299.196 1.448 300.892 1.96 302.385 2.6L299.601 9.192C298.428 8.744 297.222 8.424 295.985 8.232C294.748 8.01867 293.521 7.912 292.305 7.912C290.3 7.912 288.86 8.27467 287.985 9C287.132 9.72533 286.705 10.9307 286.705 12.616V17.16H297.777L296.657 24.168H286.705V49H276.657V24.168H269.521V17.16H276.657V12.232C276.657 9.992 277.19 7.98667 278.257 6.216C279.324 4.44533 280.902 3.048 282.993 2.024C285.084 0.978664 287.665 0.455997 290.737 0.455997ZM336.088 39.208C336.088 40.488 336.259 41.416 336.6 41.992C336.963 42.568 337.539 43.0053 338.328 43.304L336.248 49.96C334.243 49.768 332.547 49.3307 331.16 48.648C329.795 47.944 328.717 46.888 327.928 45.48C326.627 47.0373 324.963 48.2 322.936 48.968C320.909 49.7147 318.84 50.088 316.728 50.088C313.229 50.088 310.435 49.096 308.344 47.112C306.275 45.1067 305.24 42.536 305.24 39.4C305.24 35.7093 306.68 32.8613 309.56 30.856C312.461 28.8507 316.536 27.848 321.784 27.848H326.36V26.568C326.36 24.7973 325.784 23.4853 324.632 22.632C323.501 21.7787 321.837 21.352 319.64 21.352C318.552 21.352 317.155 21.512 315.448 21.832C313.741 22.1307 312.035 22.568 310.328 23.144L307.992 16.424C310.189 15.592 312.472 14.9627 314.84 14.536C317.229 14.1093 319.363 13.896 321.24 13.896C326.296 13.896 330.029 14.9307 332.44 17C334.872 19.048 336.088 22.0133 336.088 25.896V39.208ZM320.216 42.856C321.304 42.856 322.445 42.536 323.64 41.896C324.835 41.2347 325.741 40.3067 326.36 39.112V33.608H323.864C321.048 33.608 318.979 34.0453 317.656 34.92C316.333 35.7733 315.672 37.032 315.672 38.696C315.672 39.9973 316.067 41.0213 316.856 41.768C317.667 42.4933 318.787 42.856 320.216 42.856ZM350.303 9.8L375.327 25.288V32.52L350.399 48.008L345.823 41.128L366.623 28.904L345.823 17.064L350.303 9.8Z" fill="#6272A4"/>
</svg>
